# xmcd
#
# Track frame offsets:
# 150
# 12696
# 31988
# 47692
# 65230
# 78606
# 94625
# 110366
# 128255
# 144660
# 162449
# 177648
#
# Disc length: 2571 seconds
#
#
# Revision: 2
# Processed by: cddbd v1.5.1PL0 Copyright (c) Steve Scherf et al.
# Submitted via: FreeRIP 2.90 
#
DISCID=a50a090c
DTITLE=Forty5 South - We're Country So We Can
DYEAR=2005
DGENRE=Country
TTITLE0=I'm Gonna Move On
TTITLE1=The Stuff I Grew Up On
TTITLE2=Heaven Only Knows
TTITLE3=I've Been There Too
TTITLE4=Li'l Red Riding Hood
TTITLE5=A Mile Away
TTITLE6=My Way
TTITLE7=Second Hand Life
TTITLE8=Taste Of Class
TTITLE9=Smoke If You Got 'Em
TTITLE10=Seems Like Yesterday
TTITLE11=We're Country So We Can
EXTD=TILO-45S05-CD YEAR: 2005
EXTT0=
EXTT1=
EXTT2=
EXTT3=
EXTT4=
EXTT5=
EXTT6=
EXTT7=
EXTT8=
EXTT9=
EXTT10=
EXTT11=
PLAYORDER=
